# File produced by Open Asset Import Library (http://www.assimp.sf.net)
# (assimp v3.1.76522261)

mtllib cube1.obj.mtl

# 8 vertex positions
v  0 0 0
v  1 1 0
v  1 0 0
v  0 1 0
v  0 1 1
v  0 0 1
v  1 1 1
v  1 0 1

# 4 UV coordinates
vt 0 1 0
vt 1 0 0
vt 1 1 0
vt 0 0 0

# 6 vertex normals
vn 0 0 -1
vn -1 0 0
vn 0 1 0
vn 1 0 0
vn 0 -1 0
vn 0 0 1

# Mesh 'g cube' with 2 faces
g g cube
usemtl face1
f  1/1/1 2/2/1 3/3/1
f  1/1/1 4/4/1 2/2/1

# Mesh 'defaultobject' with 2 faces
g defaultobject
usemtl face2
f  1/4/2 5/3/2 4/1/2
f  1/4/2 6/2/2 5/3/2

# Mesh 'defaultobject' with 2 faces
g defaultobject
usemtl face3
f  4/4/3 7/3/3 2/1/3
f  4/4/3 5/2/3 7/3/3

# Mesh 'defaultobject' with 2 faces
g defaultobject
usemtl face4
f  3/2/4 2/3/4 7/1/4
f  3/2/4 7/1/4 8/4/4

# Mesh 'defaultobject' with 2 faces
g defaultobject
usemtl face5
f  1/4/5 3/2/5 8/3/5
f  1/4/5 8/3/5 6/1/5

# Mesh 'defaultobject' with 1 faces
g defaultobject
usemtl face6
f  6/1/6 8/3/6 7/2/6

